<svg xmlns="http://www.w3.org/2000/svg" fill="#2563EB" viewBox="0 0 659 151.61"><path d="M143.72 0c14.66 0 28.72 5.61 39.09 15.6 9.14 8.81 14.75 20.38 15.94 32.67.16.73.24 1.49.24 2.27V74c0 5.98-4.95 10.83-11.05 10.83S176.89 79.98 176.89 74V53.24l-.04-1.59c-.41-7.9-3.84-15.39-9.67-21-6.22-5.99-14.66-9.36-23.45-9.36-8.8 0-17.23 3.37-23.45 9.36s-9.72 14.12-9.72 22.59v74.9h32.24c6.61 0 11.98 5.25 11.98 11.73s-5.36 11.73-11.98 11.73H56.2c-6.61 0-11.98-5.25-11.98-11.73s5.36-11.73 11.98-11.73h32.24v-74.9l-.04-1.59c-.41-7.9-3.84-15.39-9.67-21-6.22-5.99-14.66-9.36-23.45-9.36-8.8 0-17.23 3.37-23.45 9.36s-9.72 14.12-9.72 22.59V74c0 5.98-4.95 10.83-11.05 10.83S0 79.98 0 74V50.54c0-.78.09-1.53.24-2.26 1.2-12.3 6.8-23.87 15.95-32.68C26.56 5.61 40.62 0 55.27 0c14.66 0 28.72 5.61 39.09 15.6 1.86 1.79 3.57 3.7 5.13 5.7 1.56-2 3.28-3.91 5.14-5.7C115 5.61 129.06 0 143.72 0"></path><path d="M11.56 95.58c6.38 0 11.56 5.17 11.56 11.54s-5.18 11.53-11.56 11.53S0 113.49 0 107.12s5.18-11.54 11.56-11.54M186.62 95.58c6.39 0 11.56 5.17 11.56 11.54s-5.17 11.53-11.56 11.53-11.56-5.16-11.56-11.53 5.18-11.54 11.56-11.54M429.87 33.53c-4.4 0-8.63 1.28-12.25 3.73s-6.46 5.9-8.13 9.91c-1.67 4.06-2.12 8.46-1.28 12.75s2.95 8.24 6.07 11.3c3.06 3.12 7.01 5.18 11.3 6.07 4.29.84 8.74.39 12.75-1.28 4.06-1.67 7.52-4.51 9.91-8.13 2.45-3.62 3.73-7.91 3.73-12.25 0-5.85-2.34-11.47-6.46-15.64a22.1 22.1 0 0 0-15.64-6.46m0 59.8c-7.46 0-14.7-2.17-20.93-6.35a37.64 37.64 0 0 1-13.86-16.87c-2.84-6.85-3.62-14.42-2.17-21.71s5.01-14.03 10.3-19.26a37.54 37.54 0 0 1 19.26-10.3c7.29-1.45 14.86-.72 21.71 2.17a37.64 37.64 0 0 1 16.87 13.86 37.77 37.77 0 0 1 6.35 20.93c0 9.97-3.95 19.49-11.02 26.56-7.01 7.01-16.59 11.02-26.56 11.02l.06-.06ZM479.01 30.07c0-1.18.15-2.36.56-3.44s1.08-2.1 1.9-2.92c1.69-1.64 4-2.62 6.41-2.62s4.67.92 6.41 2.62c.87.82 1.54 1.85 1.95 2.92s.67 2.26.62 3.49c0 2.31-.97 4.51-2.62 6.16a8.83 8.83 0 0 1-4.51 2.51c-1.74.36-3.54.21-5.18-.46s-3.03-1.8-4.05-3.28a9.04 9.04 0 0 1-1.49-4.98M624.36 62.95c-4 0-7.95 1.18-11.29 3.44-3.33 2.26-5.95 5.44-7.49 9.13-1.54 3.75-1.95 7.8-1.18 11.75a20.03 20.03 0 0 0 5.59 10.42c2.87 2.87 6.46 4.77 10.42 5.59 3.95.77 8.06.36 11.75-1.18s6.88-4.16 9.13-7.49 3.44-7.29 3.44-11.29c0-5.39-2.15-10.57-5.95-14.42-3.85-3.8-8.98-5.95-14.42-5.95m0 55.11c-6.88 0-13.54-2-19.29-5.85a34.69 34.69 0 0 1-14.78-35.56c1.33-6.72 4.62-12.93 9.49-17.75 4.82-4.87 11.03-8.16 17.75-9.49s13.7-.67 20.01 2a34.73 34.73 0 0 1 15.55 12.78 34.8 34.8 0 0 1 5.85 19.29c0 9.18-3.64 17.96-10.16 24.47-6.46 6.46-15.29 10.16-24.47 10.16zM624.36 151.61c-19.09 0-34.63-13.54-34.63-30.12h14.16c0 8.77 9.18 15.96 20.37 15.96s20.37-7.18 20.37-15.96h14.16c.15 16.67-15.34 30.12-34.48 30.12z"></path><path d="M659 48.74h-14.16v72.8H659zM577.57 117.85h-14.78V79.16c0-4.46-1.8-8.77-4.98-11.95s-7.49-4.93-11.95-4.93-8.77 1.8-11.95 4.93c-3.18 3.18-4.98 7.49-4.98 11.95v38.69h-14.78V81.73c0-7.08 9.95-5.03 9.9-11.6 0-12.21 10.31-21.34 25.04-21.34 20.06 0 28.53 13.65 28.53 30.37v38.69h-.1z"></path><path d="M528.99 48.74h-14.78v42.23h14.78zM495.28 48.74H480.5v69.11h14.78zM364.3 21.09h-14.78v97.02h14.78zM406.95 21.09h-14.78v97.02h14.78zM304.32 78.3h-30.84l15.39-40.22 15.44 40.22Zm-7.13-56.6-.21-.41h-15.7l-38.22 95.99-.41.97h15.8l9.9-25.96h41.2l9.8 25.55.21.46h16.01l-38.38-96.51v-.1Z"></path></svg>